<mxfile host="app.diagrams.net" modified="2024-06-13T09:08:00.663Z" agent="Mozilla/5.0 (Windows NT 10.0; Win64; x64) AppleWebKit/537.36 (KHTML, like Gecko) Chrome/125.0.0.0 Safari/537.36" version="24.5.4" etag="Dp1q3BESslESnDRt364m" type="github">
  <diagram name="Page-1" id="pZy3yzVU_10s8FFnI2Zp">
    <mxGraphModel>
      <root>
        <mxCell id="0" />
        <mxCell id="1" parent="0" />
      </root>
    </mxGraphModel>
  </diagram>
</mxfile>
